<?xml version="1.0" standalone="no"?>
<!DOCTYPE svg PUBLIC "-//W3C//DTD SVG 20010904//EN"
 "http://www.w3.org/TR/2001/REC-SVG-20010904/DTD/svg10.dtd">
<svg version="1.0" xmlns="http://www.w3.org/2000/svg"
 width="260.000000pt" height="260.000000pt" viewBox="0 0 260.000000 260.000000"
 preserveAspectRatio="xMidYMid meet">
<metadata>
Created by potrace 1.14, written by Peter Selinger 2001-2017
</metadata>
<g transform="translate(0.000000,260.000000) scale(0.100000,-0.100000)"
fill="#000000" stroke="none">
<path d="M628 2556 c28 -27 52 -51 52 -56 0 -4 -9 -10 -20 -13 -11 -3 -20 -10
-20 -17 0 -6 5 -8 10 -5 6 4 22 -1 37 -10 23 -16 25 -22 21 -73 -3 -40 -17
-83 -46 -144 -66 -137 -86 -292 -61 -476 9 -66 8 -94 -5 -156 -8 -41 -18 -104
-22 -140 -4 -37 -11 -66 -15 -66 -12 0 -11 -257 1 -262 5 -1 11 -28 13 -58 3
-30 10 -68 17 -85 6 -16 18 -48 26 -71 36 -106 142 -237 253 -313 53 -35 276
-159 276 -153 0 2 8 0 18 -3 22 -9 21 -24 -2 -52 -19 -22 -71 -39 -71 -23 0 5
-21 7 -46 5 -57 -5 -108 -38 -130 -84 -19 -39 -26 -91 -13 -91 5 0 8 -3 8 -7
-1 -5 -1 -17 0 -27 1 -14 4 -17 12 -9 6 6 11 17 13 24 5 28 37 79 60 94 25 17
62 10 48 -9 -10 -14 -9 -87 1 -103 5 -7 5 -17 2 -23 -3 -6 -2 -10 4 -10 6 0
19 15 28 34 19 36 81 85 100 79 7 -3 8 -16 3 -39 -9 -39 -6 -87 8 -124 9 -24
10 -24 31 18 39 77 82 115 144 127 9 2 17 -1 17 -7 0 -5 7 -8 15 -4 8 3 15 0
15 -6 0 -6 3 -9 6 -5 3 3 16 -5 29 -19 12 -13 27 -24 34 -24 6 0 11 -4 11 -8
0 -10 63 -82 72 -82 3 0 5 8 3 18 -1 9 0 22 4 27 9 16 9 79 -1 98 -5 10 -5 17
1 17 11 0 123 -121 117 -127 -5 -5 67 -71 104 -96 38 -26 96 -22 116 8 35 54
124 456 124 563 0 23 5 42 10 42 6 0 10 56 10 149 0 89 -4 152 -10 156 -5 3
-10 23 -10 43 0 57 -45 241 -80 328 -47 119 -151 285 -223 357 -17 17 -17 29
-1 87 17 63 23 216 11 285 -14 79 -16 87 -29 103 -7 8 -12 18 -11 21 3 11 -29
75 -56 111 -14 19 -27 38 -27 43 -1 4 -2 8 -4 10 -2 2 -6 17 -14 56 -7 30 27
79 60 87 30 8 22 24 -12 24 -24 0 -22 3 22 45 26 26 55 50 63 55 13 8 13 9 -5
10 -26 0 -112 -29 -144 -49 -26 -16 -90 -80 -90 -90 0 -4 -4 -12 -9 -19 -7
-11 -16 -10 -48 6 -169 87 -380 92 -543 15 l-54 -26 -16 24 c-47 72 -119 119
-206 135 l-39 7 53 -47z m337 -250 c11 -3 21 -5 23 -5 1 -1 4 -1 7 -1 11 1
127 -116 147 -148 l21 -34 23 29 c13 15 23 33 24 39 0 13 80 101 80 88 0 -5 4
-4 8 1 21 29 106 50 130 32 6 -5 12 -7 12 -3 0 4 15 -1 33 -10 39 -20 139
-123 131 -135 -3 -5 0 -9 6 -9 6 0 8 -4 5 -10 -3 -5 -2 -10 3 -10 5 0 9 -6 10
-12 1 -16 10 -53 12 -53 5 0 6 -141 1 -150 -3 -5 -7 -18 -8 -28 -2 -10 -10
-31 -18 -47 -9 -17 -14 -31 -13 -32 3 -4 -31 -45 -68 -83 -35 -35 -148 -98
-158 -88 -3 3 -6 1 -6 -6 0 -7 -4 -10 -9 -6 -5 3 -12 1 -16 -4 -3 -6 -12 -8
-20 -4 -8 3 -15 1 -15 -5 0 -6 -11 -9 -25 -7 -14 1 -27 -1 -30 -5 -2 -3 -35
-5 -72 -3 -37 2 -83 4 -100 5 -18 1 -33 5 -33 11 0 5 -7 6 -16 3 -9 -3 -21 -3
-27 1 -7 4 -18 9 -24 10 -7 2 -19 4 -26 6 -7 1 -40 16 -72 32 -142 69 -208
201 -185 367 6 39 19 91 30 116 25 56 81 131 98 132 6 0 12 5 12 11 0 5 4 8 9
4 5 -3 12 -1 16 5 4 6 11 8 16 5 5 -4 9 -2 9 4 0 9 25 8 75 -3z m398 -918 c-3
-66 0 -113 12 -158 21 -82 88 -221 160 -328 30 -46 55 -86 55 -88 0 -2 10 -15
23 -30 12 -14 22 -30 22 -35 0 -5 5 -13 10 -17 16 -11 47 -62 38 -62 -5 0 0
-5 10 -11 9 -5 17 -16 17 -23 0 -8 7 -19 15 -26 9 -7 13 -15 11 -17 -2 -3 3
-13 12 -24 9 -11 15 -22 14 -26 -2 -3 0 -9 5 -12 10 -7 58 -102 58 -116 0 -5
3 -14 6 -20 9 -15 37 -106 42 -137 3 -21 0 -26 -15 -25 -12 1 -20 11 -23 27
-18 92 -116 330 -137 330 -5 0 -6 5 -3 10 3 6 2 10 -3 10 -5 0 -15 14 -22 30
-7 17 -17 30 -22 30 -5 0 -6 5 -3 10 3 6 -1 13 -9 16 -9 3 -13 10 -10 15 3 5
-2 12 -10 15 -9 3 -13 10 -10 15 3 5 -2 12 -10 15 -9 3 -13 10 -10 15 3 5 -2
12 -10 15 -9 3 -14 9 -11 13 2 4 -8 21 -23 37 -15 17 -34 43 -42 60 -8 16 -26
45 -38 64 -35 52 -96 177 -118 240 -24 71 -27 266 -4 280 8 5 17 7 20 5 4 -2
5 -46 3 -97z m-50 -1003 c25 -13 47 -21 51 -18 3 4 6 1 6 -6 0 -16 -58 -40
-80 -34 -18 5 -30 31 -30 66 0 22 1 22 53 -8z"/>
<path d="M854 2033 c-17 -10 -41 -25 -53 -34 l-22 -17 21 -40 c11 -22 29 -47
39 -56 29 -26 85 -31 135 -12 45 17 111 66 89 66 -7 0 -13 6 -13 14 0 8 -7 17
-16 20 -8 3 -13 10 -9 16 9 15 -71 60 -107 60 -19 0 -47 -8 -64 -17z"/>
<path d="M1349 2032 c-17 -9 -44 -33 -60 -55 -27 -38 -28 -40 -11 -62 27 -37
85 -65 126 -63 20 2 36 6 36 11 0 4 4 7 10 7 5 0 30 20 54 45 l44 46 -24 24
c-14 14 -29 25 -34 25 -6 0 -10 4 -10 9 0 4 -22 13 -50 18 -39 8 -56 7 -81 -5z"/>
<path d="M1127 1857 c-30 -46 5 -227 45 -227 19 0 49 81 55 150 5 49 2 64 -12
80 -25 27 -69 26 -88 -3z"/>
</g>
</svg>
